# xmcd
#
# Track frame offsets:
#	150
#	23957
#	40470
#	57450
#	85929
#	110705
#	133638
#	166036
#	187046
#	210159
#
# Disc length: 3127 seconds
#
# Revision: 0
# Processed by: cddbd v1.5.2PL0 Copyright (c) Steve Scherf et al.
# Submitted via: EZCDAudioConverter 8.0.2.1
#
DISCID=870c350a
DTITLE=Thanh Thu - Trên Dòng Sông Nhỏ
DYEAR=2000
DGENRE=
TTITLE0=Trên Dòng Sông Nhỏ
TTITLE1=Đổi thay
TTITLE2=Hình anh người em không đợi
TTITLE3=Hoa mười giờ
TTITLE4=Biển dâu
TTITLE5=Vọng về tim
TTITLE6=Sao chưa thấy hồi âm
TTITLE7=Giọng ca dĩ vãng
TTITLE8=Nếu ta đừng quên nhau
TTITLE9=Thành phố buồn
EXTD=
EXTT0=
EXTT1=
EXTT2=
EXTT3=
EXTT4=
EXTT5=
EXTT6=
EXTT7=
EXTT8=
EXTT9=
PLAYORDER=
